<svg width="24" height="24" viewBox="0 0 24 24" fill="none" xmlns="http://www.w3.org/2000/svg">
<circle cx="12" cy="12" r="12" fill="#FFBD04"/>
<path d="M12.84 15.252H11.334C10.35 15.252 9.55196 14.424 9.55196 13.404C9.55196 13.158 9.75596 12.954 10.002 12.954C10.248 12.954 10.452 13.158 10.452 13.404C10.452 13.926 10.848 14.352 11.334 14.352H12.84C13.23 14.352 13.554 14.004 13.554 13.584C13.554 13.062 13.368 12.96 13.062 12.852L10.644 12C10.176 11.838 9.54596 11.49 9.54596 10.416C9.54596 9.49205 10.272 8.74805 11.16 8.74805H12.666C13.65 8.74805 14.448 9.57605 14.448 10.596C14.448 10.842 14.244 11.046 13.998 11.046C13.752 11.046 13.548 10.842 13.548 10.596C13.548 10.074 13.152 9.64805 12.666 9.64805H11.16C10.77 9.64805 10.446 9.99605 10.446 10.416C10.446 10.938 10.632 11.04 10.938 11.148L13.356 12C13.824 12.162 14.454 12.51 14.454 13.584C14.448 14.502 13.728 15.252 12.84 15.252Z" fill="white"/>
<path d="M12 16.0501C11.754 16.0501 11.55 15.8461 11.55 15.6001V8.40007C11.55 8.15407 11.754 7.95007 12 7.95007C12.246 7.95007 12.45 8.15407 12.45 8.40007V15.6001C12.45 15.8461 12.246 16.0501 12 16.0501Z" fill="white"/>
<path d="M12 18.45C8.44199 18.45 5.54999 15.558 5.54999 12C5.54999 8.44205 8.44199 5.55005 12 5.55005C15.558 5.55005 18.45 8.44205 18.45 12C18.45 15.558 15.558 18.45 12 18.45ZM12 6.45005C8.93999 6.45005 6.44999 8.94005 6.44999 12C6.44999 15.06 8.93999 17.55 12 17.55C15.06 17.55 17.55 15.06 17.55 12C17.55 8.94005 15.06 6.45005 12 6.45005Z" fill="white"/>
</svg>
