<svg width="24" height="24" viewBox="0 0 24 24" fill="none" xmlns="http://www.w3.org/2000/svg">
<circle cx="12" cy="12" r="12" fill="#FA0013"/>
<g clip-path="url(#clip0_2211_36509)">
<path d="M15.2344 17.25C15.1554 17.2503 15.0784 17.2257 15.0143 17.1797L12 14.9944L8.98569 17.1797C8.9213 17.2264 8.84371 17.2514 8.76416 17.2511C8.6846 17.2508 8.6072 17.2252 8.54315 17.1781C8.47909 17.1309 8.43169 17.0646 8.40781 16.9887C8.38393 16.9128 8.38481 16.8313 8.4103 16.7559L9.58593 13.2738L6.53905 11.1844C6.47306 11.1392 6.42325 11.074 6.3969 10.9985C6.37055 10.923 6.36905 10.841 6.39261 10.7645C6.41618 10.6881 6.46357 10.6212 6.52786 10.5736C6.59216 10.526 6.66999 10.5002 6.74999 10.5H10.5089L11.6433 7.00898C11.6677 6.93361 11.7154 6.86791 11.7795 6.82132C11.8436 6.77473 11.9208 6.74963 12 6.74963C12.0792 6.74963 12.1564 6.77473 12.2205 6.82132C12.2846 6.86791 12.3323 6.93361 12.3567 7.00898L13.4911 10.5012H17.25C17.3301 10.5011 17.4081 10.5267 17.4726 10.5742C17.5371 10.6217 17.5847 10.6886 17.6084 10.7651C17.6321 10.8417 17.6307 10.9237 17.6044 10.9994C17.578 11.075 17.5282 11.1403 17.4621 11.1855L14.4141 13.2738L15.589 16.755C15.608 16.8114 15.6134 16.8714 15.6046 16.9303C15.5958 16.9891 15.5732 17.045 15.5385 17.0934C15.5039 17.1417 15.4582 17.1812 15.4054 17.2084C15.3525 17.2356 15.2939 17.2499 15.2344 17.25Z" fill="#FFD04E"/>
</g>
<defs>
<clipPath id="clip0_2211_36509">
<rect width="12" height="12" fill="white" transform="translate(6 6)"/>
</clipPath>
</defs>
</svg>
