<svg width="32" height="32" viewBox="0 0 32 32" fill="none" xmlns="http://www.w3.org/2000/svg">
<path d="M0.5 8C0.5 3.85786 3.85786 0.5 8 0.5H24C28.1421 0.5 31.5 3.85786 31.5 8V24C31.5 28.1421 28.1421 31.5 24 31.5H8C3.85786 31.5 0.5 28.1421 0.5 24V8Z" fill="white"/>
<path d="M0.5 8C0.5 3.85786 3.85786 0.5 8 0.5H24C28.1421 0.5 31.5 3.85786 31.5 8V24C31.5 28.1421 28.1421 31.5 24 31.5H8C3.85786 31.5 0.5 28.1421 0.5 24V8Z" stroke="#1A1A1A"/>
<path d="M16 22.4333C15.7933 22.4333 15.5933 22.4066 15.4267 22.3466C12.88 21.4733 8.83333 18.3733 8.83333 13.7933C8.83333 11.46 10.72 9.56665 13.04 9.56665C14.1667 9.56665 15.22 10.0067 16 10.7933C16.78 10.0067 17.8333 9.56665 18.96 9.56665C21.28 9.56665 23.1667 11.4667 23.1667 13.7933C23.1667 18.38 19.12 21.4733 16.5733 22.3466C16.4067 22.4066 16.2067 22.4333 16 22.4333ZM13.04 10.5667C11.2733 10.5667 9.83333 12.0133 9.83333 13.7933C9.83333 18.3466 14.2133 20.88 15.7533 21.4066C15.8733 21.4466 16.1333 21.4466 16.2533 21.4066C17.7867 20.88 22.1733 18.3533 22.1733 13.7933C22.1733 12.0133 20.7333 10.5667 18.9667 10.5667C17.9533 10.5667 17.0133 11.04 16.4067 11.86C16.22 12.1133 15.7933 12.1133 15.6067 11.86C14.9867 11.0333 14.0533 10.5667 13.04 10.5667Z" fill="#1A1A1A"/>
</svg>
