<svg width="80" height="81" viewBox="0 0 80 81" fill="none" xmlns="http://www.w3.org/2000/svg">
<circle cx="40" cy="40.5238" r="38" fill="#5055D7" stroke="white" stroke-width="4"/>
<path d="M41.75 47.6072H38.6167C36.4 47.6072 34.5833 45.7405 34.5833 43.4405C34.5833 42.7572 35.15 42.1905 35.8333 42.1905C36.5166 42.1905 37.0833 42.7572 37.0833 43.4405C37.0833 44.3572 37.7667 45.1072 38.6167 45.1072H41.75C42.4 45.1072 42.9166 44.5238 42.9166 43.8072C42.9166 42.9072 42.6667 42.7738 42.1 42.5738L37.0833 40.8238C36.0166 40.4405 34.5833 39.6738 34.5833 37.2238C34.5833 35.1405 36.2333 33.4238 38.25 33.4238H41.3833C43.6 33.4238 45.4166 35.2905 45.4166 37.5905C45.4166 38.2738 44.85 38.8405 44.1666 38.8405C43.4833 38.8405 42.9166 38.2738 42.9166 37.5905C42.9166 36.6738 42.2333 35.9238 41.3833 35.9238H38.25C37.6 35.9238 37.0833 36.5072 37.0833 37.2238C37.0833 38.1238 37.3333 38.2571 37.9 38.4571L42.9166 40.2071C43.9833 40.5905 45.4166 41.3572 45.4166 43.8072C45.4166 45.9072 43.7666 47.6072 41.75 47.6072Z" fill="white"/>
<path d="M40 49.2738C39.3167 49.2738 38.75 48.7071 38.75 48.0238V33.0238C38.75 32.3405 39.3167 31.7738 40 31.7738C40.6833 31.7738 41.25 32.3405 41.25 33.0238V48.0238C41.25 48.7071 40.6833 49.2738 40 49.2738Z" fill="white"/>
<path d="M40 58.4405C30.1166 58.4405 22.0833 50.4072 22.0833 40.5238C22.0833 30.6405 30.1166 22.6072 40 22.6072C40.6833 22.6072 41.25 23.1738 41.25 23.8572C41.25 24.5405 40.6833 25.1072 40 25.1072C31.5 25.1072 24.5833 32.0238 24.5833 40.5238C24.5833 49.0238 31.5 55.9405 40 55.9405C48.5 55.9405 55.4166 49.0238 55.4166 40.5238C55.4166 39.8405 55.9833 39.2738 56.6666 39.2738C57.35 39.2738 57.9166 39.8405 57.9166 40.5238C57.9166 50.4072 49.8833 58.4405 40 58.4405Z" fill="white"/>
<path d="M56.6667 31.7738C55.9833 31.7738 55.4167 31.2072 55.4167 30.5238V25.1072H50C49.3167 25.1072 48.75 24.5405 48.75 23.8572C48.75 23.1738 49.3167 22.6072 50 22.6072H56.6667C57.35 22.6072 57.9167 23.1738 57.9167 23.8572V30.5238C57.9167 31.2072 57.35 31.7738 56.6667 31.7738Z" fill="white"/>
<path d="M48.3332 33.4405C48.0166 33.4405 47.6999 33.3238 47.4499 33.0738C46.9666 32.5905 46.9666 31.7905 47.4499 31.3072L55.7832 22.9738C56.2666 22.4905 57.0666 22.4905 57.5499 22.9738C58.0332 23.4572 58.0332 24.2572 57.5499 24.7405L49.2166 33.0738C48.9666 33.3238 48.6499 33.4405 48.3332 33.4405Z" fill="white"/>
</svg>
