<svg width="32" height="32" viewBox="0 0 32 32" fill="none" xmlns="http://www.w3.org/2000/svg">
<path d="M0.5 8C0.5 3.85786 3.85786 0.5 8 0.5H24C28.1421 0.5 31.5 3.85786 31.5 8V24C31.5 28.1421 28.1421 31.5 24 31.5H8C3.85786 31.5 0.5 28.1421 0.5 24V8Z" fill="white"/>
<path d="M0.5 8C0.5 3.85786 3.85786 0.5 8 0.5H24C28.1421 0.5 31.5 3.85786 31.5 8V24C31.5 28.1421 28.1421 31.5 24 31.5H8C3.85786 31.5 0.5 28.1421 0.5 24V8Z" stroke="#1A1A1A"/>
<path d="M20 18.5C19.7306 18.4999 19.464 18.5544 19.2163 18.6602C18.9686 18.766 18.7449 18.921 18.5587 19.1156L13.9337 16.5135C14.0233 16.177 14.0233 15.823 13.9337 15.4866L18.5587 12.8844C18.8955 13.2336 19.3481 13.448 19.8316 13.4874C20.3151 13.5269 20.7964 13.3887 21.1854 13.0988C21.5743 12.8088 21.8442 12.387 21.9445 11.9124C22.0447 11.4377 21.9685 10.9428 21.73 10.5203C21.4916 10.0978 21.1073 9.77679 20.6491 9.61732C20.191 9.45786 19.6904 9.47091 19.2411 9.65404C18.7919 9.83717 18.4249 10.1778 18.2088 10.6121C17.9927 11.0465 17.9423 11.5447 18.0672 12.0135L13.4422 14.6156C13.1659 14.3276 12.8098 14.1288 12.4196 14.0448C12.0294 13.9608 11.623 13.9955 11.2527 14.1444C10.8824 14.2933 10.5651 14.5495 10.3416 14.8802C10.1182 15.2109 9.99875 15.6009 9.99875 16C9.99875 16.3991 10.1182 16.7891 10.3416 17.1198C10.5651 17.4505 10.8824 17.7068 11.2527 17.8557C11.623 18.0046 12.0294 18.0392 12.4196 17.9552C12.8098 17.8713 13.1659 17.6725 13.4422 17.3844L18.0672 19.9866C17.96 20.3903 17.9818 20.8174 18.1297 21.2081C18.2776 21.5988 18.5441 21.9333 18.8918 22.1648C19.2395 22.3963 19.6509 22.5131 20.0684 22.4989C20.4858 22.4846 20.8884 22.34 21.2195 22.0854C21.5506 21.8307 21.7936 21.4788 21.9145 21.0789C22.0354 20.6791 22.0281 20.2515 21.8936 19.856C21.7591 19.4605 21.5042 19.1171 21.1646 18.8739C20.8249 18.6307 20.4177 18.5 20 18.5Z" fill="#1A1A1A"/>
</svg>
